<svg height="480pt" viewBox="0 0 480 480.00002" width="480pt" xmlns="http://www.w3.org/2000/svg"><path d="m439.859375 0c-22.082031.0273438-39.972656 17.917969-40 40v432c0 4.417969 3.582031 8 8 8 39.746094-.042969 71.957031-32.253906 72-72v-80c-.011719-10.167969-6.417969-19.230469-16-22.632812v-17.367188h8c4.417969 0 8-3.582031 8-8v-240c-.027344-22.082031-17.917969-39.9726562-40-40zm0 16c13.253906 0 24 10.746094 24 24v136h-24c-4.417969 0-8 3.582031-8 8s3.582031 8 8 8h24v16h-48v-168c0-13.253906 10.746094-24 24-24zm24 224h-48v-16h48zm-8 80c4.417969 0 8 3.582031 8 8v80c-.035156 27.824219-20.464844 51.417969-48 55.433594v-175.433594h32v24c0 4.417969 3.582031 8 8 8zm0-48h-40v-16h48v16zm0 0"/><path d="m439.859375 352c-4.417969 0-8 3.582031-8 8v48c0 4.417969 3.582031 8 8 8s8-3.582031 8-8v-48c0-4.417969-3.582031-8-8-8zm0 0"/><path d="m293.300781 368.71875c-6.355469.921875-12.5 2.960938-18.144531 6.015625l-74.089844-203.535156c2.585938-.945313 4.875-2.558594 6.640625-4.671875 1.300781-.925782 2.289063-2.222656 2.839844-3.71875l32-87.960938c10.539063-29.058594-4.433594-61.164062-33.472656-71.769531-1.996094-.71875-4.191407-.621094-6.117188.265625-1.925781.898438-3.410156 2.519531-4.136719 4.511719l-20.097656 55.199219-20.09375-55.199219c-.722656-1.996094-2.210937-3.625-4.132812-4.527344-1.925782-.898437-4.128906-.996094-6.125-.273437-29.035156 10.605468-44.007813 42.710937-33.472656 71.769531l38.28125 105.175781-70.832032 194.734375c-5.648437-3.054687-11.789062-5.09375-18.144531-6.015625-28.941406-4.285156-56.308594 14.433594-62.804687 42.960938-6.496094 28.527343 10.0625 57.25 38.003906 65.921874 5.183594 1.59375 10.578125 2.402344 16 2.398438 24.21875-.316406 45.660156-15.71875 53.6875-38.566406l18.511718-50.867188 22.5625 8.21875c4.121094 1.410156 8.617188-.738281 10.105469-4.832031 1.492188-4.097656-.570312-8.632813-4.632812-10.199219l-22.5625-8.21875 45.601562-125.359375 45.597657 125.359375-22.542969 8.21875c-4.03125 1.585938-6.066407 6.101563-4.585938 10.175782 1.480469 4.070312 5.9375 6.226562 10.050781 4.855468l22.558594-8.210937 18.503906 50.859375c8.046876 22.875 29.535157 38.285156 53.785157 38.566406 5.421875.003906 10.816406-.804688 16-2.398438 27.945312-8.671874 44.503906-37.394531 38.003906-65.921874-6.496094-28.527344-33.859375-47.246094-62.804687-42.960938zm-82.433593-347.117188c16.179687 9.960938 23.136718 29.917969 16.664062 47.78125l-23.246094 63.863282-17.027344-46.765625zm-116.769532 414.398438c-7.179687 20.511719-28.980468 32-49.957031 26.320312-19.980469-6.179687-31.828125-26.707031-27.179687-47.097656 4.644531-20.390625 24.214843-33.761718 44.898437-30.679687 7.152344 1.050781 13.875 4.058593 19.425781 8.6875 2.003906 1.65625 4.683594 2.230469 7.191406 1.550781 2.507813-.683594 4.523438-2.539062 5.414063-4.980469l67.832031-186.402343 8.535156 23.425781zm244.273438 3.863281c-4.632813 10.800781-13.78125 19.015625-25.015625 22.464844-20.980469 5.675781-42.785157-5.8125-49.96875-26.328125l-21.199219-58.265625v-.109375l-.039062-.113281-112.183594-308.113281c-6.484375-17.867188.476562-37.832032 16.664062-47.796876l48.964844 134.558594c-8.300781 3.027344-12.578125 12.210938-9.550781 20.511719l77.601562 213.113281c.890625 2.4375 2.90625 4.292969 5.410157 4.972656 2.503906.683594 5.183593.109376 7.1875-1.542968 5.554687-4.632813 12.277343-7.636719 19.433593-8.6875 14.347657-2.164063 28.746094 3.617187 37.617188 15.101562 8.871093 11.484375 10.828125 26.871094 5.109375 40.210938zm0 0"/><path d="m313.914062 411.089844c-4.15625 1.5-6.304687 6.089844-4.796874 10.246094 1.511718 4.152343-.628907 8.746093-4.78125 10.261718-4.152344 1.511719-8.746094-.628906-10.261719-4.78125-.726563-1.996094-.628907-4.203125.269531-6.128906.902344-1.925781 2.53125-3.414062 4.53125-4.136719 2.738281-.9375 4.757812-3.28125 5.28125-6.128906.519531-2.847656-.539062-5.753906-2.769531-7.601563-2.230469-1.84375-5.28125-2.34375-7.984375-1.300781-12.453125 4.535157-18.878906 18.304688-14.34375 30.761719 4.53125 12.457031 18.304687 18.878906 30.761718 14.34375 12.453126-4.53125 18.875-18.304688 14.34375-30.761719-1.515624-4.144531-6.101562-6.28125-10.25-4.773437zm0 0"/><path d="m73.644531 422.03125c-1.996093-.726562-4.199219-.625-6.125.273438-1.921875.902343-3.410156 2.53125-4.132812 4.527343-1.503907 4.15625-6.09375 6.304688-10.246094 4.800781-4.15625-1.507812-6.296875-6.101562-4.789063-10.253906 1.507813-4.152344 6.097657-6.296875 10.25-4.785156 2.691407.996094 5.710938.476562 7.914063-1.359375 2.199219-1.839844 3.25-4.71875 2.746094-7.542969-.5-2.824218-2.476563-5.164062-5.179688-6.132812-12.453125-4.53125-26.226562 1.890625-30.761719 14.34375-4.53125 12.457031 1.890626 26.230468 14.347657 30.761718 12.453125 4.535157 26.226562-1.886718 30.757812-14.34375.738281-2 .648438-4.207031-.25-6.140624-.898437-1.929688-2.53125-3.421876-4.53125-4.148438zm0 0"/></svg>